<svg width="33" height="34" viewBox="0 0 33 34" fill="none" xmlns="http://www.w3.org/2000/svg">
<path d="M16.4544 23.5685C20.0927 23.5685 23.0422 20.6189 23.0422 16.9806C23.0422 13.3422 20.0927 10.3928 16.4544 10.3928C12.816 10.3928 9.86653 13.3422 9.86653 16.9806C9.86653 20.6189 12.816 23.5685 16.4544 23.5685Z" stroke="white" stroke-width="3" stroke-linecap="round" stroke-linejoin="round"/>
<path d="M1.63171 23.5685V10.3928C1.63171 5.84482 5.31857 2.15796 9.86653 2.15796H23.0422C27.5902 2.15796 31.2771 5.84482 31.2771 10.3928V23.5685C31.2771 28.1164 27.5902 31.8033 23.0422 31.8033H9.86653C5.31857 31.8033 1.63171 28.1164 1.63171 23.5685Z" stroke="white" stroke-width="3"/>
<path d="M25.5127 7.93846L25.5288 7.92053" stroke="white" stroke-width="3" stroke-linecap="round" stroke-linejoin="round"/>
</svg>
