<?xml version="1.0" encoding="utf-8"?>
<!-- Generator: Adobe Illustrator 27.9.0, SVG Export Plug-In . SVG Version: 6.00 Build 0)  -->
<svg version="1.1" id="Capa_1" xmlns="http://www.w3.org/2000/svg" xmlns:xlink="http://www.w3.org/1999/xlink" x="0px" y="0px"
	 viewBox="0 0 459.3 258.3" style="enable-background:new 0 0 459.3 258.3;" xml:space="preserve">
<g>
	<path d="M148.4,57.8v14.9h-17.4V141H116V72.6H98.7V57.8L148.4,57.8L148.4,57.8z"/>
	<path d="M199.4,125h-22l-3.5,16h-15.3l20-83.2h19.5l20,83.2h-15.2L199.4,125z M196.3,110.4l-5.8-27.4c-1-4.5-1.5-7.6-1.7-9.4
		s-0.2-2.6-0.4-2.6h-0.2c-0.1,0-0.2,0.8-0.4,2.6s-0.7,4.9-1.7,9.4l-5.8,27.4H196.3z"/>
	<path d="M234.2,141V57.8h15.1V141H234.2z"/>
	<path d="M303.6,141l-11.1-28.8h-6.4V141H271V57.9h21.6c3.6,0,6.9,0.6,10,1.9c3.1,1.3,5.8,3.1,8.1,5.5c2.3,2.4,4,5.2,5.3,8.7
		c1.3,3.5,2,7.2,2,11.4c0,5.4-1.1,10-3.3,13.9s-5.1,6.9-8.7,9l14.5,32.7H303.6z M286.3,98.6h5.9c3.2,0,5.8-1.2,7.8-3.6
		c2-2.4,3-5.6,3-9.6s-1-7.2-3-9.6c-2-2.4-4.5-3.6-7.6-3.6h-6.2V98.6z"/>
	<path d="M337.4,141V57.8h15.1V141H337.4z"/>
	<path d="M116.4,201.4l-2.5-10.2h-10.4l-2.5,10.2h-2.7l8.9-35.2h3.1l8.9,35.2H116.4z M104.1,188.6h9.1l-3.7-15.6
		c-0.4-1.4-0.5-2.4-0.6-3c0-0.6-0.1-0.9-0.1-0.9h-0.1c0,0-0.1,0.3-0.1,0.9c0,0.6-0.2,1.6-0.6,3L104.1,188.6z"/>
	<path d="M157.9,197.3l-0.2,0.2c-0.2,0.5-0.5,1.1-0.9,1.7c-0.4,0.5-0.9,1.1-1.4,1.5c-0.5,0.5-1.2,0.7-1.8,1
		c-0.6,0.2-1.4,0.4-2.1,0.4c-3.2,0-5.5-1.4-7-4.3c-1.5-2.9-2.3-7.5-2.3-13.7c0-3.3,0.2-6,0.6-8.4s1-4.2,1.8-5.7
		c0.8-1.5,1.8-2.6,3-3.3c1.2-0.7,2.6-1.1,4.2-1.1c2.4,0,4.2,0.8,5.6,2.2c1.4,1.5,2.3,3.7,2.8,6.8l-2.6,0.7c-0.4-2.6-1-4.4-2-5.5
		s-2.2-1.7-3.8-1.7c-2.4,0-4.1,1.3-5.1,3.8s-1.5,6.5-1.5,11.9c0,2.8,0.1,5.1,0.5,7.1c0.3,2,0.7,3.6,1.3,4.8c0.5,1.2,1.3,2.1,2.1,2.7
		c0.9,0.5,1.9,0.9,3,0.9c0.9,0,1.6-0.2,2.3-0.5c0.6-0.3,1.3-0.8,1.8-1.4s0.9-1.3,1.2-2.1c0.3-0.8,0.5-1.6,0.6-2.4v-7.5h-6.1v-2.4
		h8.6v18.4h-2.4c0-1.6,0-2.7,0-3.2S157.9,197.4,157.9,197.3L157.9,197.3L157.9,197.3z"/>
	<path d="M188.8,198.8H200v2.7h-14v-35.2h13.6v2.7h-10.9v12.4h8v2.6h-8V198.8z"/>
	<path d="M239.4,166.2h2.7l-0.1,35.2h-2.4l-10.4-24.9c-0.2-0.5-0.4-1-0.6-1.6s-0.4-1.2-0.6-1.8c-0.2-0.5-0.3-1-0.5-1.4l-0.2-0.6
		h-0.1l0.1,0.7c0,0.5,0.1,1.1,0.2,1.9c0,0.8,0.1,1.7,0.2,2.8c0,1.1,0.1,2.2,0.1,3.4v21.5H225v-35.2h2.4l10.5,25
		c0.2,0.6,0.5,1.2,0.7,1.8s0.4,1.2,0.5,1.7c0.2,0.5,0.3,0.9,0.4,1.2l0.2,0.5h0.1l0-0.7c0-0.5-0.1-1.1-0.2-1.9c0-0.8-0.1-1.8-0.2-2.8
		s0-2.2,0-3.4L239.4,166.2L239.4,166.2z"/>
	<path d="M282.7,175.3l-0.2,0.2c-0.3-2.6-1-4.4-2-5.5c-1-1.1-2.2-1.7-3.8-1.7c-2.4,0-4.1,1.3-5.1,3.8s-1.5,6.5-1.5,11.9
		c0,2.8,0.2,5.1,0.5,7.1c0.3,2,0.7,3.6,1.3,4.8c0.5,1.3,1.3,2.2,2.1,2.8c0.9,0.6,1.8,0.9,2.9,0.9c1.8,0,3.1-0.7,4.1-2.1s1.7-3.4,2-6
		l2.5,0.7c-0.5,3.5-1.4,6-2.9,7.7c-1.5,1.6-3.4,2.4-5.7,2.4c-3.3,0-5.7-1.4-7.2-4.4s-2.3-7.7-2.3-13.8c0-3.3,0.2-6,0.6-8.4
		c0.4-2.3,1-4.2,1.8-5.7s1.8-2.6,3-3.3c1.2-0.7,2.6-1.1,4.2-1.1c2.4,0,4.2,0.8,5.6,2.2c1.4,1.5,2.3,3.7,2.8,6.8L282.7,175.3z"/>
	<path d="M313.3,201.4h-2.7v-35.2h2.7V201.4z"/>
	<path d="M356.3,201.4l-2.5-10.2h-10.4l-2.5,10.2h-2.7l8.9-35.2h3.1l8.9,35.2H356.3z M344.1,188.6h9.1l-3.7-15.6
		c-0.3-1.4-0.5-2.4-0.6-3c0-0.6-0.1-0.9-0.2-0.9h-0.1c0,0-0.1,0.3-0.2,0.9c0,0.6-0.2,1.6-0.6,3L344.1,188.6z"/>
</g>
<g>
	<rect x="21.7" y="20.2" width="414" height="4.2"/>
	<rect x="21.7" y="235.6" width="414" height="4.2"/>
</g>
</svg>
